<svg id="Layer_1" data-name="Layer 1" xmlns="http://www.w3.org/2000/svg" viewBox="0 0 994.65 758.89"><path d="M997.15,763.59c-1.87-15.79-12.88-27.88-27.53-30.23s-28.14,4.26-34.93,17.25c-1.62,3.1-3.63,3.86-7,4.33-11.57,1.64-20-2.47-27.6-11.29-9-10.43-19.35-19.72-29.2-29.41q-20-20.09-40-40.07c-2.51-2.52-5.6-3.34-9-3.35-6.59,0-13.19-.14-19.77,0-3.38.09-5.36-1-7.08-4.13-6.21-11.24-16-17.08-26.49-17.57-16.45,0-28.79,8.53-33.67,21.65-10.08-.14-20.18-.1-30.26,0a9.61,9.61,0,0,1-7.55-3.12Q683.8,654,670.3,640.56q-41.94-41.88-84-83.66a11.13,11.13,0,0,1-3.48-8.75c.12-17.82.06-35.65.06-53.47V411.55a24.39,24.39,0,0,0,.51-5.13c.09-16,.14-32,0-48.06a12.68,12.68,0,0,1,4.08-9.89c17.85-17.7,35.53-35.55,53.26-53.36q27.25-27.36,54.44-54.77a10.22,10.22,0,0,1,8-3.22c17.81.12,35.61.1,53.42,0a32.79,32.79,0,0,0,17.57,18.66c14.67,6.31,32,2.19,40.09-11.23,4.18-6.89,8.8-8.87,15.93-7.88a6.31,6.31,0,0,0,1.84,0c5.71-.91,9.72,1.67,13.62,5.69,11.35,11.72,23.05,23.1,34.61,34.62,2.3,2.29,4.92,3.94,8.25,4.08a12,12,0,0,0,3.87-.45c3.72,0,5.81-2.35,7-5.91l.08-.15a11.17,11.17,0,0,0,1.09-6.54c.15-1.89.2-3.88.2-5.9,0-20.08-.13-56.86-.38-76.93,0-4.62.22-8.16,5.34-9.79,1.75-.56,3.23-2.14,4.68-3.42,9.79-8.69,13.82-19.52,10.8-32.3-3.13-13.22-11.58-21.92-24.88-25.05-13.14-3.09-24.55.85-33,11.27a36.49,36.49,0,0,0-5.45,9.19c-12.75-.15-28.86-.36-36.09-.36v.13c-10.78,0-21.57-.07-32.35,0a5.2,5.2,0,0,1-3.25-.86,32.07,32.07,0,0,0-16.22-17.26,31.48,31.48,0,0,0-24.76-2.3l-.55.19q-.6.19-1.2.42l-.57.23a36.46,36.46,0,0,0-9.31,5.5,33,33,0,0,0-10.06,13.07,7.51,7.51,0,0,1-4.29.95c-6.59-.18-13.18-.06-19.77,0a14.12,14.12,0,0,0-5.68,1.07q-42.2,0-84.38,0a17.35,17.35,0,0,0-13.17,5.57c-8.55,8.81-17.39,17.33-26,26.13-2.49,2.56-4.61,3.21-8.23,2.05-22.23-7.14-45.44,12.28-42.33,35.18,2.75,20.21,21,33.31,40.47,28.87,19.24-4.4,30.88-25,23.82-43.07-1-2.52-.4-4.11,1.43-5.9,7.7-7.54,15.36-15.13,22.86-22.87a10,10,0,0,1,7.94-3.21c17.79.1,35.58,0,53.37,0-1.42,1.42-2.83,2.85-4.21,4.28-4,4.17-7.87,8.27-12.11,12.12a3.46,3.46,0,0,1-.24.57c-2.44,2.45-4.9,4.9-7.34,7.36l-.11.12Q620,208.33,594.65,233.64c-17.81,17.73-35.66,35.42-53.36,53.26a12.59,12.59,0,0,1-9.88,4.08q-13.45-.14-26.89-.11t-26.9.11a12.6,12.6,0,0,1-9.88-4.08c-17.7-17.84-35.55-35.53-53.36-53.26q-24.47-24.34-49-48.67a14.61,14.61,0,0,0-1.34-1.58c-2-2-4-4-6-6a8.77,8.77,0,0,1-.82-1.46c-5.64-4.71-8.59-8.56-14.09-13.5l-.05-.05-3.72-3.72c17.12,0,34.24.05,51.36,0a10,10,0,0,1,7.94,3.21c7.5,7.74,15.16,15.33,22.86,22.87,1.83,1.79,2.42,3.38,1.43,5.9-7.06,18.07,4.58,38.67,23.83,43.07,19.45,4.44,37.71-8.66,40.46-28.87,3.12-22.9-20.1-42.32-42.33-35.18-3.62,1.16-5.74.51-8.23-2.05-8.56-8.8-17.4-17.32-25.95-26.13a17.33,17.33,0,0,0-13.17-5.57q-41.33.07-82.65,0a15.43,15.43,0,0,0-4.65-.68c-6.59,0-13.18-.14-19.77,0-3.38.09-5.36-1-7.08-4.13-.14-.26-.3-.5-.44-.75A32.22,32.22,0,0,0,257,113.55h0c-10.94-1.27-20.33,2.87-28,11.55-1.28,1.45-2.86,2.93-3.42,4.68-1.63,5.12-5.17,5.39-9.79,5.34-20.07-.25-40.15-.14-60.22-.1a27.83,27.83,0,0,0-3,.16,36.26,36.26,0,0,0-5.49-9.28c-8.41-10.42-19.83-14.36-33-11.27-13.3,3.13-21.75,11.83-24.88,25.05-3,12.78,1,23.61,10.8,32.3,1.45,1.28,2.93,2.86,4.68,3.42,5.12,1.63,5.4,5.17,5.34,9.79-.25,20.07-.55,63.85-.51,83.92h0a11.65,11.65,0,0,0,12,12.94c3.33-.15,6-1.79,8.25-4.08,11.56-11.52,23.26-22.91,34.61-34.62,3.9-4,7.91-6.6,13.62-5.69a6,6,0,0,0,1.84,0c7.13-1,11.76,1,15.93,7.89,8.13,13.42,25.42,17.54,40.09,11.23a32.9,32.9,0,0,0,17.92-19.65q10.17,0,20.33,0c8.69,0,17.39.3,26.05-.12,5.42-.26,9.21,1.58,13,5.37Q366,295.88,419.18,349a11.31,11.31,0,0,1,3.48,8.77c-.12,15.72-.08,31.45,0,47.17,0,1.27.06,2.57.19,3.85q0,69.33.07,138.66a12.85,12.85,0,0,1-4.3,10.23c-7.69,7.33-15.09,15-22.61,22.48-28.15,28.15-56.39,56.22-84.35,84.56-4.37,4.43-8.69,6.45-14.91,6.14-9.56-.47-19.17-.24-28.75,0a15.07,15.07,0,0,0-2.27.21c-4.82-13.26-17.21-21.95-33.76-21.9-10.55.49-20.28,6.33-26.49,17.57-1.72,3.11-3.7,4.22-7.08,4.13-6.59-.18-13.18-.06-19.77,0-3.4,0-6.49.83-9,3.35Q149.84,694,130.05,713.79l-.48.44c-10,9.88-20.54,19.31-29.71,29.92-7.63,8.82-16,12.93-27.6,11.29-3.32-.47-5.33-1.23-7-4.34-6.79-13-20.43-19.58-34.93-17.25S4.72,748.29,2.85,764.09c-1.58,13.3,7.54,27.91,20.69,33.15,14.11,5.62,30.56,1.91,38.36-10.63,4.69-7.53,10-9.63,17.84-8.56a16.73,16.73,0,0,0,2.24,0v0h6c18.87.09,64.83.06,83.7.06v0c18.41,0,36.83.06,55.25,0a10,10,0,0,1,7.93,3.21c7.51,7.74,15.16,15.33,22.87,22.87,1.83,1.8,2.41,3.38,1.42,5.91-7.05,18.06,4.58,38.67,23.83,43.06,19.45,4.45,37.72-8.65,40.47-28.86,3.11-22.9-20.1-42.33-42.34-35.19-3.62,1.16-5.74.51-8.22-2-8-8.25-16.28-16.26-24.33-24.47q3.85-3.87,7.7-7.73h0l7.29-7.29c1.64-1.64,3.3-3.25,4.94-4.9.94.06,1.89.07,2.85.07,17.68,0,35.35-.14,53,.07a19.21,19.21,0,0,0,14.75-6.22c17.25-17.48,34.67-34.78,51.93-52.25,2.17-2.2,3.57-2,5.45.13s4,4,6,6c7.25,7.24,7.35,7.35,0,14.36-3.88,3.68-6.14,7.66-4.94,13.12.81,3.66,3.6,5.81,6.18,8s2.94,4.06.17,6.52a97.31,97.31,0,0,0-9.51,9.54c-2.72,3.18-5.35,3.63-9.37,2.36-12.88-4-27.85,1.42-35.8,12.53-8.21,11.47-8.15,26.58.15,38.78,7.33,10.77,22.06,16.15,35,12.79,18.68-4.88,29.2-23.37,23.57-41.88-1-3.37-.55-5.55,2-7.87,3.77-3.41,7.29-7.12,10.82-10.78,1.65-1.72,2.91-2.07,4.8-.16q20.34,20.61,40.86,41.06c2.09,2.09,1.91,3.72-.16,5.65-3.61,3.36-7.27,6.71-10.57,10.37-2.2,2.44-4.15,2.93-7.38,2-22.31-6.72-43.16,9-42.76,32.28.23,13.27,6.35,23.36,18.43,29,12.66,6,25.09,4.58,35.8-4.36,10.11-8.42,14.23-19.85,10.78-32.67-1.55-5.79-.66-9.35,3.78-12.64.84-.62,1.48-1.49,2.26-2.18,2.9-2.57,5.07-7.41,8.5-7.51,3.76-.1,6,4.82,8.82,7.63,5.59,5.56,12.25,5.63,17.78.06,2.11-2.13,4.22-4.25,6.27-6.42,1.71-1.82,3.27-1.7,5,0,3.35,3.43,6.59,7,10.2,10.14,3,2.59,3.66,4.95,2.36,8.92a32.5,32.5,0,0,0,12,35.93c12.47,8.67,27.85,8.6,39.89-.18,10.79-7.87,15.69-23.62,11.4-36.67-5.72-17.43-23.09-26.78-40.77-21.58-3.72,1.1-6,.58-8.51-2.28-3.14-3.59-6.76-6.76-10.24-10.06-1.81-1.73-2.29-3.23-.25-5.26q20.68-20.6,41.22-41.34c1.65-1.67,2.88-1.66,4.47,0,3.32,3.46,6.58,7,10.2,10.13,3.25,2.8,3.86,5.46,2.63,9.74-6.76,23.63,14.25,46.14,38.2,41.24,18.38-3.76,29.68-20.73,26.17-39.3-3.31-17.53-20.86-29.79-38.7-25.55-7,1.67-10.86,0-14.84-4.93a82.42,82.42,0,0,0-7.27-7.33c-1.83-1.73-1.84-3.25.08-4.86,1-.86,2-1.77,3-2.7,5.75-5.52,5.86-12.63.27-18.21-1.7-1.69-3.35-3.44-5.19-5-2.63-2.19-2.93-4-.16-6.51a123.71,123.71,0,0,0,9.84-9.86c2.27-2.53,3.74-2.33,6.1.07,17.34,17.58,34.86,35,52.26,52.53a17.5,17.5,0,0,0,13.23,5.5c18.13-.13,36.25,0,54.38-.06.76,0,1.49,0,2.2-.09,1.65,1.66,3.33,3.28,5,4.94l7.29,7.29h0c3.59,3.59,7.17,7.2,10.78,10.78-7.09,7.16-14.3,14.2-21.32,21.42-2.48,2.55-4.6,3.2-8.22,2-22.24-7.14-45.45,12.29-42.33,35.19,2.75,20.21,21,33.31,40.46,28.86,19.25-4.39,30.88-25,23.83-43.06-1-2.53-.41-4.11,1.42-5.91,7.71-7.54,15.36-15.13,22.87-22.87a10,10,0,0,1,7.94-3.21c18.41.11,36.83,0,55.24,0v0c14.23,0,44.87-.38,67.16-.6h0c3.59.08,7.18,0,10.77,0v0a16.73,16.73,0,0,0,2.24,0c.5-.07,1-.13,1.45-.17l3.76,0c5.13.44,9.06,3,12.63,8.75,7.8,12.53,24.25,16.24,38.36,10.63C989.61,791.51,998.73,776.9,997.15,763.59ZM552.7,211.65c-5.17-.08-10.41-5.07-10.42-9.94A10.75,10.75,0,0,1,552.77,191a10.55,10.55,0,0,1,10.35,10.8C562.89,207,557.87,211.72,552.7,211.65ZM454.15,191a10.76,10.76,0,0,1,10.5,10.75c0,4.87-5.26,9.86-10.43,9.94S444,207,443.8,201.76A10.55,10.55,0,0,1,454.15,191ZM36.17,776.9A10.18,10.18,0,0,1,26,766.57a9.57,9.57,0,0,1,9.64-10.13c6.14-.16,10.84,4.18,10.83,10A10.83,10.83,0,0,1,36.17,776.9ZM290.3,810.44a10.77,10.77,0,0,1,10.49,10.75c0,4.87-5.25,9.87-10.42,9.94s-10.2-4.69-10.42-9.88A10.55,10.55,0,0,1,290.3,810.44Zm85.81-23.83a10.11,10.11,0,0,1-9.89-10.56c.11-5.83,4.49-10,10.45-9.89a10.09,10.09,0,0,1,10,10A10.52,10.52,0,0,1,376.11,786.61Zm62.55,62.09a10.23,10.23,0,1,1-.17-20.45,10.23,10.23,0,0,1,.17,20.45Zm128.4-20.45a10.23,10.23,0,1,1,.13,20.45,10.23,10.23,0,0,1-.13-20.45Zm62.43-62.09a9.81,9.81,0,0,1,10,10.34,10.1,10.1,0,0,1-10.32,10.12A10.65,10.65,0,0,1,619,776.1,10.09,10.09,0,0,1,629.49,766.16Zm91.89,65c-5.17-.07-10.4-5.07-10.42-9.94a10.77,10.77,0,0,1,10.49-10.75,10.55,10.55,0,0,1,10.35,10.81C731.58,826.44,726.55,831.21,721.38,831.13Zm34.87-151.5A10,10,0,0,1,766.38,672c5.22.2,10,5.12,10,10.27a9.88,9.88,0,0,1-7.5,9.8C760,694.36,754,688.5,756.25,679.63Zm34.18-444.42c-8.87,2.29-14.88-3.57-12.59-12.44A10,10,0,0,1,788,215.14c5.23.2,10,5.12,10,10.27A9.87,9.87,0,0,1,790.43,235.21Zm98-98.73c5.29-.24,10.67,5,10.8,10.5.11,5-5.24,10.38-10.38,10.43s-10.54-5.17-10.59-10.23C878.21,142,883.19,136.7,888.42,136.48ZM765,146.45c0,4.39-4,8.92-8.24,10.08a14.38,14.38,0,0,1-4.3-.47,9.86,9.86,0,0,1-7.5-9.8c0-5.15,4.73-10.07,10-10.27a9.08,9.08,0,0,1,1.28,0C760.76,137,765,141.8,765,146.45ZM512.73,408.66V413c-1.43,4-5.43,7.38-9.6,7.56s-8.57-3.17-10.16-7.35v-6.36c1.54-3.85,5.7-7.18,9.74-7.22s8.51,3.38,10,7.39C512.73,407.55,512.73,408.1,512.73,408.66ZM482.64,594.13c7.57-7.06,10.86-14.65,10.56-25.21-.72-25.75-.23-51.53-.23-77.29V441.75c.78.23,1.57.44,2.38.63a32.87,32.87,0,0,0,17.38-.3q0,62.16,0,124.31c0,20-.86,15.91,12.27,29.21q18.48,18.71,37.21,37.15c2.66,2.62,2.74,4.48-.05,7a103.44,103.44,0,0,0-8.57,8.57c-2.4,2.67-4.31,2.94-7,.2C535.4,637,524,625.81,512.74,614.38c-6.25-6.37-13.14-6.53-19.5-.15q-16.51,16.54-33,33.06c-4.49,4.49-4.5,4.49-9.13-.13-2.44-2.43-4.73-5-7.33-7.27-2.95-2.53-3-4.47-.12-7.28C456.69,619.85,469.29,606.59,482.64,594.13Zm-231-437.34a12,12,0,0,1-7-5.95,12.46,12.46,0,0,1,0-6.81,10,10,0,0,1,10.14-7.64,9.16,9.16,0,0,1,2.37.43c4.16,1.6,7.48,5.89,7.3,10.13S261,155,257,156.51A13.42,13.42,0,0,1,251.64,156.79ZM121.86,136.48c5.23.22,10.21,5.47,10.17,10.7,0,5.06-5.45,10.29-10.59,10.23S111,152,111.07,147C111.19,141.48,116.57,136.24,121.86,136.48Zm97.69,99.72a9.89,9.89,0,0,1-7.51-9.81c0-5.15,4.74-10.07,10-10.27a10,10,0,0,1,10.13,7.64C234.43,232.62,228.41,238.49,219.55,236.2ZM234.16,672a10,10,0,0,1,10.14,7.63c2.29,8.87-3.73,14.73-12.59,12.44a9.86,9.86,0,0,1-7.5-9.8C224.17,677.12,228.94,672.2,234.16,672Zm188.76,6.59c-5.65-6-11.95-11.39-17.34-17.6-8.33-9.59-16.39-7.66-23.92.11-17.81,18.41-36.17,36.28-54.18,54.49a12.07,12.07,0,0,1-9.5,3.91c-15.58-.16-31.16,0-46.74-.07a26.29,26.29,0,0,0-8,.92q-.5.17-1,.36a10.73,10.73,0,0,0-6.78,3c-10.24,9.83-20.31,19.84-30.1,30.11a16,16,0,0,0-1.27,1.55q-51.9.07-103.8,0,10-10.05,20.07-20.12a20.44,20.44,0,0,0,1.57-1.4c11.55-11.52,23.25-22.9,34.61-34.62,3.9-4,7.91-6.6,13.62-5.69a6.31,6.31,0,0,0,1.84,0c7.13-1,11.75,1,15.92,7.88,8.13,13.42,25.43,17.54,40.1,11.23a32.89,32.89,0,0,0,17.81-19.33,16.18,16.18,0,0,0,2.24.16c13.63.05,27.26,0,40.89,0a13.12,13.12,0,0,0,10.06-4.09c4.78-5,9.72-9.77,14.59-14.64Q387.31,621.14,441,567.49a14.72,14.72,0,0,0,4.6-11.2c-.08-25.16,0-50.33,0-75.49q0-35.66,0-71.31a39.78,39.78,0,0,0,.27-4.49c.05-17.82-.1-35.64.1-53.46a19,19,0,0,0-6.34-14.69c-8.72-8.42-17.26-17-25.82-25.61q-46-46.11-91.89-92.24a14.81,14.81,0,0,0-11.22-4.63c-19.14.13-38.28.07-57.42.07-5-12.84-17.25-21.2-33.49-21.15-10.54.49-20.28,6.33-26.49,17.57-1.71,3.11-3.7,4.21-7.08,4.12-6.58-.17-13.17,0-19.76,0-3.41,0-6.5.83-9,3.34q-12.13,12.17-24.29,24.31c0-9.5,0-19,0-28.49H133c0-10.79.07-21.57-.05-32.36,0-2.64,1-4,3.28-5.19A34.32,34.32,0,0,0,153,158.11c.77.07,1.55.12,2.37.12,10.49.06,21,0,31.46,0v-.13c10.79,0,21.57.07,32.36-.05,2.64,0,4,1,5.19,3.28C231,174,243,180.64,255.35,180c9.78-.15,19.08-4.5,24.73-12.73a32.71,32.71,0,0,0,3.37-4.82,13.11,13.11,0,0,1,5.15-3.79l17,0a20.3,20.3,0,0,1,6.78,5c7.77,8,15.7,15.88,23.64,23.73a15.06,15.06,0,0,0,1.75,2.06c7.48,7.34,14.84,14.8,22.24,22.21q48.36,48.42,96.75,96.92a18.44,18.44,0,0,0,14,5.72c6.8-.07,13.61-.08,20.41-.09,0,19.22-.14,38.44.1,57.66.06,4.61-.21,8.16-5.33,9.79-1.75.55-3.24,2.13-4.69,3.42a35.61,35.61,0,0,0-9.63,13.15,11.57,11.57,0,0,0-1.31,3.87c0,.16,0,.33-.07.49a30.63,30.63,0,0,0-.56,10.26q-.06,65.38,0,130.76c0,9.14.07,18.27.28,27.4a6.57,6.57,0,0,1-2.13,5.16q-12.52,12.54-25,25.1c-8.86,8.91-17.9,17.65-26.47,26.82-5.41,5.79-4.55,12.26,1.14,17.8,6.54,6.37,12.81,13,19.3,19.42,2.08,2.07,2,3.65-.12,5.59a99.61,99.61,0,0,0-7.62,7.62C426.88,680.93,425.31,681.13,422.92,678.59ZM577,719Q550.08,746,523.11,773q-8.57,8.58-17.16,17.14c-.93.92-1.7,2.13-3.17,2.23-1.34-.25-2.07-1.26-2.9-2.09q-26.43-26.6-52.85-53.2c-6.43-6.46-12.91-12.89-19.49-19.2-2.26-2.16-2.14-3.67,0-5.83q25.17-24.92,50.18-50c7.29-7.28,14.67-14.49,21.82-21.9,2.51-2.6,4.21-2.33,6.61.1,11.43,11.6,23,23.06,34.52,34.56,12.06,12,24.07,24.11,36.19,36.08C580.9,714.9,581.09,714.85,577,719Zm204.55,36.37a14.78,14.78,0,0,0-1.28-1.55c-9.78-10.27-19.85-20.28-30.09-30.11a10.79,10.79,0,0,0-7.27-3,24.05,24.05,0,0,0-8.13-1.24c-14.53,0-29.06-.29-43.58.12a18.83,18.83,0,0,1-15.34-6.26C658,695,639.75,677,621.59,658.89c-6.29-6.26-13-6.18-19.27.05-6.69,6.65-13.4,13.29-20,20-1.91,2-3.23,2.06-5.1,0a89.84,89.84,0,0,0-7.68-7.56c-2.53-2.23-2.89-4-.26-6.59,6-5.83,11.72-12,17.7-17.86,7.84-7.7,8.11-13.51.26-21.43-13.16-13.27-26.2-26.69-39.88-39.42-8-7.4-11.91-14.87-11.71-26.5.83-48.8.39-97.63.34-146.45a31.3,31.3,0,0,0-.44-9.62c-.06-.54-.13-1.08-.21-1.61a11.49,11.49,0,0,0-1.63-4.34,34.58,34.58,0,0,0-16.2-17.13c-2.29-1.2-3.31-2.56-3.28-5.2.12-10.78,0-21.57,0-32.35h.13c0-9.58,0-19.16,0-28.74h1.17q11.32,0,22.66.09a18.47,18.47,0,0,0,14-5.72Q600.63,260,649,211.62c7.4-7.41,14.76-14.87,22.24-22.21q.5-.48.93-1c8.42-8.34,16.86-16.68,25.11-25.2a22,22,0,0,1,5.89-4.57l18.75,0a12.39,12.39,0,0,1,2.32,1.5C728.07,169,735,175,744.52,177.93a32.35,32.35,0,0,0,6.43,1.42,30.35,30.35,0,0,0,13.61-1.15l.27-.08.12,0a34.86,34.86,0,0,0,3.85-1.4A32.74,32.74,0,0,0,786,159c1.79-1.06,4.09-1.15,6.76-1.12,15.27.19,43.09-.06,64.36-.22A34.31,34.31,0,0,0,874,176.56c2.29,1.19,3.31,2.55,3.28,5.19-.12,10.79,0,21.57,0,32.36h-.13c0,9.27,0,18.54,0,27.81q-12.3-12.3-24.6-24.61c-2.51-2.52-5.6-3.34-9-3.35-6.59,0-13.19-.14-19.77,0-3.38.09-5.36-1-7.08-4.13-6.21-11.24-15.94-17.08-26.49-17.57-16.66-.05-29.11,8.75-33.86,22.16-9.52,0-19.05,0-28.58,0-10.93,0-21.86.07-32.79,0a13,13,0,0,0-10,4.08c-7.33,7.48-14.79,14.84-22.2,22.25q-48.42,48.36-96.92,96.74a18.37,18.37,0,0,0-5.72,14c.16,17.1,0,34.2.09,51.3,0,.44-.06.9-.06,1.37q.06,38.19,0,76.38c0,25.16.05,50.33,0,75.49a15.11,15.11,0,0,0,4.74,11.59c17.45,17.27,34.75,34.71,52.11,52.07q34.93,34.95,69.87,69.89c2.21,2.22,4.72,3.83,7.86,3.84,13.35.07,26.7.12,40,0a32.82,32.82,0,0,0,17.78,19.23c14.67,6.31,32,2.19,40.09-11.23,4.17-6.89,8.8-8.87,15.93-7.88a6.31,6.31,0,0,0,1.84,0c5.71-.91,9.72,1.67,13.62,5.69,11.35,11.72,23,23.1,34.61,34.62.41.41.84.79,1.27,1.16Q870,745.2,880.17,755.37,830.85,755.39,781.53,755.35Zm182.3,21A10.82,10.82,0,0,1,953.54,766c0-5.84,4.69-10.19,10.83-10A9.58,9.58,0,0,1,974,766.08,10.18,10.18,0,0,1,963.83,776.4Z" transform="translate(-2.67 -112.96)"/></svg>